<?xml version="1.0" standalone="no"?><!DOCTYPE svg PUBLIC "-//W3C//DTD SVG 1.1//EN" "http://www.w3.org/Graphics/SVG/1.1/DTD/svg11.dtd"><svg t="1522391252602" class="icon" style="" viewBox="0 0 1024 1024" version="1.1" xmlns="http://www.w3.org/2000/svg" p-id="1113" xmlns:xlink="http://www.w3.org/1999/xlink" width="200" height="200"><defs><style type="text/css"></style></defs><path d="M428.668083 449.712375h218.702024v81.94329H428.668083zM428.668083 318.491775h218.702024v77.516467H428.668083z" p-id="1114"></path><path d="M779.024589 65.937758H244.974387c-98.467639 0-179.030489 80.563874-179.030489 179.031513v534.060435c0 98.467639 80.563874 179.031513 179.030489 179.031512h534.051226c98.467639 0 179.031513-80.563874 179.031512-179.031512V244.969271c-0.001023-98.467639-80.564897-179.031513-179.032536-179.031513z m-72.963778 631.261221c0 36.544311-18.829857 54.81442-56.479339 54.81442h-70.868048l-15.498995-56.475246c26.935466 1.855254 49.457412 2.771113 67.546395 2.771113 11.075243 0 16.609283-7.379061 16.609283-22.146392v-90.803076H425.346431c-7.745405 70.136384-28.785603 128.633682-63.114456 175.513386l-44.293809-40.416502c33.958416-47.615461 51.492768-109.438505 52.603055-185.479365V263.126816h335.51959v434.072163z" p-id="1115"></path></svg>