<?xml version="1.0" standalone="no"?><!DOCTYPE svg PUBLIC "-//W3C//DTD SVG 1.1//EN" "http://www.w3.org/Graphics/SVG/1.1/DTD/svg11.dtd"><svg t="1522391396520" class="icon" style="" viewBox="0 0 1024 1024" version="1.1" xmlns="http://www.w3.org/2000/svg" p-id="2476" xmlns:xlink="http://www.w3.org/1999/xlink" width="200" height="200"><defs><style type="text/css"></style></defs><path d="M136.533333 381.155556L455.111111 568.888889c34.133333 22.755556 79.644444 22.755556 113.777778 0l312.888889-187.733333c5.688889-5.688889 17.066667-11.377778 17.066666-17.066667 22.755556-28.444444 11.377778-62.577778-11.377777-79.644445L568.888889 91.022222c-34.133333-22.755556-79.644444-22.755556-113.777778 0L136.533333 284.444444c-5.688889 0-11.377778 11.377778-17.066666 17.066667-17.066667 28.444444-5.688889 62.577778 17.066666 79.644445z m347.022223-244.622223c17.066667-11.377778 39.822222-11.377778 56.888888 0L853.333333 329.955556 540.444444 517.688889c-17.066667 11.377778-39.822222 11.377778-56.888888 0L170.666667 329.955556l312.888889-193.422223z" p-id="2477"></path><path d="M887.466667 466.488889l-17.066667-11.377778-56.888889 34.133333 39.822222 22.755556-312.888889 187.733333c-17.066667 11.377778-39.822222 11.377778-56.888888 0L170.666667 512l39.822222-22.755556-56.888889-34.133333-17.066667 11.377778-17.066666 17.066667c-17.066667 28.444444-5.688889 62.577778 17.066666 79.644444L455.111111 750.933333c34.133333 22.755556 79.644444 22.755556 113.777778 0l312.888889-187.733333c5.688889-5.688889 17.066667-11.377778 17.066666-17.066667 22.755556-28.444444 11.377778-62.577778-11.377777-79.644444z" p-id="2478"></path><path d="M887.466667 648.533333l-11.377778-5.688889-56.888889 34.133334 39.822222 22.755555-312.888889 187.733334c-17.066667 11.377778-39.822222 11.377778-56.888889 0L170.666667 699.733333l39.822222-22.755555-56.888889-34.133334-11.377778 5.688889c-5.688889 5.688889-17.066667 11.377778-17.066666 17.066667-17.066667 28.444444-5.688889 62.577778 17.066666 79.644444L455.111111 932.977778c34.133333 22.755556 79.644444 22.755556 113.777778 0l312.888889-187.733334c5.688889-5.688889 17.066667-11.377778 17.066666-17.066666 22.755556-28.444444 11.377778-62.577778-11.377777-79.644445z" p-id="2479"></path></svg>