<?xml version="1.0" standalone="no"?><!DOCTYPE svg PUBLIC "-//W3C//DTD SVG 1.1//EN" "http://www.w3.org/Graphics/SVG/1.1/DTD/svg11.dtd"><svg t="1522392216578" class="icon" style="" viewBox="0 0 1024 1024" version="1.1" xmlns="http://www.w3.org/2000/svg" p-id="1066" xmlns:xlink="http://www.w3.org/1999/xlink" width="200" height="200"><defs><style type="text/css"></style></defs><path d="M343.5 573.6H230.9c-62.2 0-112.7 50.4-112.7 112.7V799c0 62.2 50.4 112.7 112.7 112.7h112.7c62.2 0 112.7-50.4 112.7-112.7V686.3c-0.1-62.3-50.5-112.7-112.8-112.7z m0 225.3H230.9V686.3h112.7v112.6z m169.1-563.3c0-62.2-50.5-112.7-112.7-112.7h-169c-62.2 0-112.7 50.4-112.7 112.7v169c0 62.2 50.4 112.7 112.7 112.7h169c62.2 0 112.7-50.5 112.7-112.7v-169z m-112.7 169h-169v-169h169v169z m394.3-281.7H681.6c-62.2 0-112.7 50.4-112.7 112.7v112.7c0 62.2 50.4 112.7 112.7 112.7h112.7c62.2 0 112.7-50.5 112.7-112.7V235.6c-0.1-62.3-50.5-112.7-112.8-112.7z m0 225.3H681.6V235.6h112.7v112.6z m0 169.1h-169c-62.2 0-112.7 50.4-112.7 112.7v169c0 62.2 50.4 112.7 112.7 112.7h169c62.2 0 112.7-50.4 112.7-112.7V630c0-62.3-50.4-112.7-112.7-112.7z m0 281.6h-169v-169h169v169z" fill="#515151" p-id="1067"></path></svg>