<?xml version="1.0" standalone="no"?><!DOCTYPE svg PUBLIC "-//W3C//DTD SVG 1.1//EN" "http://www.w3.org/Graphics/SVG/1.1/DTD/svg11.dtd"><svg t="1522391314350" class="icon" style="" viewBox="0 0 1024 1024" version="1.1" xmlns="http://www.w3.org/2000/svg" p-id="2881" xmlns:xlink="http://www.w3.org/1999/xlink" width="200" height="200"><defs><style type="text/css"></style></defs><path d="M469.51335 579.867714h125.250632v48.557925H469.51335z" p-id="2882"></path><path d="M778.10873 67.469648H245.89127c-98.128925 0-178.416506 80.287581-178.416506 178.416505v532.226671c0 98.128925 80.287581 178.416506 178.416506 178.416505h532.216437c98.128925 0 178.416506-80.287581 178.416506-178.416505V245.886153C956.525236 147.757229 876.237655 67.469648 778.10873 67.469648z m-363.77512 344.660784V364.6787h93.25287v-35.31225h55.723116v35.31225h90.496084v47.451732h-90.496084v40.83094h107.048062v49.660027H399.441435v-49.660027h108.145045v-40.83094h-93.25287z m0 119.736035h235.609089v145.666614H414.33361V531.866467z m336.027149 173.804464c0 33.468253-20.055778 50.209542-60.140728 50.209542h-68.973908l-14.892175-54.622038c26.483164 1.834788 48.733934 2.756787 66.76152 2.756787 13.241582 0 19.862373-6.252401 19.862373-18.760273V317.779553H377.366673v166.081573c-1.098008 112.931049-20.960381 204.704219-59.58712 275.328719l-44.141336-39.724746c29.79356-60.693314 45.24753-137.750317 46.345538-231.1925V264.809131h430.378028v440.8618z" p-id="2883"></path></svg>