<?xml version="1.0" standalone="no"?><!DOCTYPE svg PUBLIC "-//W3C//DTD SVG 1.1//EN" "http://www.w3.org/Graphics/SVG/1.1/DTD/svg11.dtd"><svg t="1522661134473" class="icon" style="" viewBox="0 0 1024 1024" version="1.1" xmlns="http://www.w3.org/2000/svg" p-id="2094" xmlns:xlink="http://www.w3.org/1999/xlink" width="200" height="200"><defs><style type="text/css"></style></defs><path d="M627.2 614.4c-8.533333 0-12.8-4.266667-21.333333-4.266667-110.933333-17.066667-89.6-145.066667-93.866667-140.8-4.266667 0 0-25.6 0-25.6 64-34.133333 64-132.266667 64-132.266666V187.733333s-8.533333-132.266667-106.666667-132.266666L384 21.333333C273.066667 21.333333 273.066667 187.733333 273.066667 187.733333v115.2c0 68.266667 59.733333 145.066667 59.733333 145.066667s4.266667 29.866667 0 25.6c-4.266667 0 34.133333 119.466667-76.8 136.533333-110.933333 17.066667-200.533333 85.333333-221.866667 102.4-34.133333 46.933333-34.133333 162.133333-34.133333 162.133334h571.733333c-8.533333-25.6-17.066667-55.466667-17.066666-85.333334 0-68.266667 25.6-128 72.533333-174.933333z" p-id="2095"></path><path d="M810.666667 576c-119.466667 0-213.333333 93.866667-213.333334 213.333333s93.866667 213.333333 213.333334 213.333334 213.333333-93.866667 213.333333-213.333334-93.866667-213.333333-213.333333-213.333333z m4.266666 354.133333h-38.4V896h38.4v34.133333z m64-192c-4.266667 8.533333-12.8 17.066667-25.6 29.866667l-12.8 12.8c-12.8 12.8-21.333333 21.333333-21.333333 25.6-4.266667 8.533333-4.266667 17.066667-4.266667 29.866667v21.333333h-38.4v-8.533333c0-25.6 8.533333-46.933333 25.6-68.266667l12.8-12.8c21.333333-21.333333 29.866667-42.666667 29.866667-55.466667 0-12.8-4.266667-21.333333-12.8-25.6-8.533333-8.533333-21.333333-8.533333-34.133333-8.533333-17.066667 0-38.4 4.266667-59.733334 12.8v-29.866667c21.333333-8.533333 42.666667-8.533333 64-8.533333 25.6 0 46.933333 4.266667 59.733334 17.066667 17.066667 12.8 21.333333 25.6 21.333333 46.933333 0 4.266667 0 12.8-4.266667 21.333333z" p-id="2096"></path></svg>